<svg width="1920" height="859" viewBox="0 0 1920 859" fill="none" xmlns="http://www.w3.org/2000/svg">
<g style="mix-blend-mode:multiply">
<path d="M1598.98 -773L1298.39 -472.517L997.812 -773L-295 519.385L946.024 1760L1246.61 1459.52L1547.19 1760L2840 467.615L1598.98 -773ZM946.024 1644.91L-179.868 519.385L997.812 -657.906L1240.82 -414.983L306.139 519.385L1189.03 1401.98L946.024 1644.91ZM1304.16 1401.98L2238.84 467.615L1588 -183.008L1530.45 -125.473L1530.55 -125.373L845.721 559.252L903.274 616.786L1588.12 -67.8383L2123.73 467.589L1246.61 1344.42L421.296 519.385L1274 -333.035H1273.97L1387.54 -446.619H1387.57L1598.98 -657.931L2724.87 467.589L1547.16 1644.91L1304.16 1401.98Z" fill="url(#paint0_linear_206_1185)" fill-opacity="0.25"/>
</g>
<defs>
<linearGradient id="paint0_linear_206_1185" x1="1272.5" y1="-773" x2="1272.5" y2="1760" gradientUnits="userSpaceOnUse">
<stop stop-color="#3C2222"/>
<stop offset="1" stop-color="#D9D9D9" stop-opacity="0"/>
</linearGradient>
</defs>
</svg>
