<?xml version="1.0" encoding="UTF-8"?>
<svg id="Layer_1" data-name="Layer 1" xmlns="http://www.w3.org/2000/svg" viewBox="0 0 192 192">
  <defs>
    <style>
      .cls-1 {
        fill: #3c2222;
      }

      .cls-1, .cls-2 {
        stroke-width: 0px;
      }

      .cls-2 {
        fill: #987f6a;
      }
    </style>
  </defs>
  <rect class="cls-1" x="-6.39" y="-6.39" width="204.78" height="204.78"/>
  <path class="cls-2" d="M113.7,27.3l-16.3,16.3-16.3-16.3L11,97.4l67.3,67.3,16.3-16.3,16.3,16.3,70.11-70.11L113.7,27.3ZM78.3,158.46l-61.05-61.05,63.86-63.86,13.18,13.18-50.68,50.68,47.88,47.88-13.18,13.18ZM97.72,145.28l50.68-50.68-35.29-35.29-3.12,3.12h0s-37.14,37.14-37.14,37.14l3.12,3.12,37.14-37.14,29.04,29.04-47.56,47.56-44.75-44.75,46.24-46.24h0s6.16-6.16,6.16-6.16h0s11.46-11.46,11.46-11.46l61.05,61.05-63.86,63.86-13.18-13.18Z"/>
</svg>